<?xml version="1.0" standalone="no"?>
<!DOCTYPE svg PUBLIC "-//W3C//DTD SVG 20010904//EN"
 "http://www.w3.org/TR/2001/REC-SVG-20010904/DTD/svg10.dtd">
<svg version="1.0" xmlns="http://www.w3.org/2000/svg"
 width="560.000000pt" height="560.000000pt" viewBox="0 0 560.000000 560.000000"
 preserveAspectRatio="xMidYMid meet">
<metadata>
Created by potrace 1.14, written by Peter Selinger 2001-2017
</metadata>
<g transform="translate(0.000000,560.000000) scale(0.100000,-0.100000)"
fill="#000000" stroke="none">
<path d="M3099 5235 c-26 -13 -82 -33 -125 -44 -86 -22 -212 -40 -474 -68
-330 -34 -652 -254 -769 -523 -13 -30 -27 -62 -31 -71 -16 -32 -51 -188 -64
-289 -18 -141 -19 -455 -2 -540 8 -37 10 -66 5 -68 -44 -17 -107 -76 -132
-123 l-27 -54 2 -205 c3 -172 6 -210 20 -236 26 -47 77 -95 125 -116 40 -18
43 -22 43 -58 0 -47 33 -195 60 -267 98 -262 293 -484 513 -583 l77 -35 0
-166 0 -166 -142 -6 c-83 -4 -184 -15 -240 -27 -525 -111 -957 -523 -1092
-1041 -35 -136 -46 -230 -46 -400 l0 -149 2000 0 2000 0 0 149 c0 170 -11 264
-46 399 -145 558 -626 983 -1201 1062 -45 6 -85 10 -89 9 -5 -1 -48 -1 -96 0
l-88 1 0 164 0 163 60 26 c289 126 529 454 580 792 18 123 18 122 43 129 46
11 104 64 131 117 25 52 26 57 26 248 0 169 -3 202 -19 237 -23 51 -83 110
-129 126 l-34 13 7 100 c12 164 14 454 4 545 -23 211 -96 402 -192 506 -28 31
-102 96 -164 145 -62 49 -113 96 -113 104 0 8 8 36 18 62 25 65 19 86 -21 80
-18 -3 -62 -16 -99 -31 l-67 -25 13 31 c15 34 10 68 -9 68 -7 0 -44 -16 -81
-35 -38 -19 -72 -35 -76 -35 -3 0 3 17 15 38 22 42 18 72 -10 72 -10 -1 -39
-12 -64 -25z"/>
</g>
</svg>
